<svg width="20" height="21" viewBox="0 0 20 21" fill="none" xmlns="http://www.w3.org/2000/svg">
<path d="M13.3755 9V4.5C13.3755 2.42893 11.6966 0.75 9.62555 0.75C7.55448 0.75 5.87555 2.42893 5.87555 4.5V9M17.2316 7.00723L18.4947 19.0072C18.5646 19.6715 18.0438 20.25 17.3759 20.25H1.87518C1.20727 20.25 0.686443 19.6715 0.756363 19.0072L2.01952 7.00723C2.07979 6.43466 2.56261 6 3.13834 6H16.1128C16.6885 6 17.1713 6.43466 17.2316 7.00723ZM6.25055 9C6.25055 9.20711 6.08265 9.375 5.87555 9.375C5.66844 9.375 5.50055 9.20711 5.50055 9C5.50055 8.79289 5.66844 8.625 5.87555 8.625C6.08265 8.625 6.25055 8.79289 6.25055 9ZM13.7505 9C13.7505 9.20711 13.5827 9.375 13.3755 9.375C13.1684 9.375 13.0005 9.20711 13.0005 9C13.0005 8.79289 13.1684 8.625 13.3755 8.625C13.5827 8.625 13.7505 8.79289 13.7505 9Z" stroke="#363B48" stroke-width="1.5" stroke-linecap="round" stroke-linejoin="round"/>
</svg>
