<svg width="15" height="15" viewBox="0 0 15 15" fill="none" xmlns="http://www.w3.org/2000/svg">
<path d="M11.7313 12.1017C13.9832 9.7518 13.9038 6.02136 11.5539 3.76949C9.20406 1.51762 5.47362 1.59706 3.22175 3.94691C1.0374 6.22634 1.0374 9.8222 3.22175 12.1017L1.6906 14.1428C1.51309 14.3795 1.56106 14.7153 1.79774 14.8928C2.03443 15.0703 2.37024 15.0224 2.54776 14.7857L4.03175 12.8067C6.0847 14.3025 8.86836 14.3025 10.9213 12.8067L12.4052 14.7857C12.5828 15.0224 12.9186 15.0704 13.1553 14.8928C13.392 14.7153 13.4399 14.3795 13.2624 14.1428L11.7313 12.1017ZM8.01231 8.03545C8.01231 8.15137 7.9747 8.26416 7.90517 8.35689L6.29797 10.4998C6.12046 10.7366 5.78464 10.7845 5.54795 10.607C5.31127 10.4294 5.26327 10.0936 5.44082 9.857L6.94088 7.85706V4.82104C6.94088 4.52516 7.18074 4.2853 7.47663 4.2853C7.77252 4.2853 8.01237 4.52516 8.01237 4.82104L8.01231 8.03545Z" fill="#1B1E25"/>
<path d="M4.54876 0.78426C3.48957 -0.248552 1.79369 -0.227175 0.760848 0.83201C-0.253511 1.87226 -0.253636 3.53151 0.760597 4.57192C0.969815 4.78108 1.30893 4.78108 1.51811 4.57192L4.54876 1.54181C4.75791 1.3326 4.75791 0.99348 4.54876 0.78426Z" fill="#1B1E25"/>
<path d="M14.1919 0.784276C13.1459 -0.261446 11.4503 -0.261446 10.4043 0.784276C10.1952 0.993486 10.1952 1.33261 10.4043 1.54179L13.4344 4.5719C13.6436 4.78106 13.9828 4.78106 14.1919 4.5719C15.2377 3.5259 15.2377 1.83031 14.1919 0.784276Z" fill="#1B1E25"/>
</svg>
