<svg width="15" height="15" viewBox="0 0 15 15" fill="none" xmlns="http://www.w3.org/2000/svg">
<path d="M8.04351 5.04228C8.34285 5.18528 8.62338 5.38074 8.87132 5.62868C10.0429 6.80025 10.0429 8.69975 8.87132 9.87132L5.87132 12.8713C4.69975 14.0429 2.80025 14.0429 1.62868 12.8713C0.457107 11.6997 0.457107 9.80025 1.62868 8.62868L2.79999 7.45737M11.7 7.04263L12.8713 5.87132C14.0429 4.69975 14.0429 2.80025 12.8713 1.62868C11.6997 0.457107 9.80025 0.457107 8.62868 1.62868L5.62868 4.62868C4.45711 5.80025 4.45711 7.69975 5.62868 8.87132C5.87662 9.11926 6.15715 9.31472 6.45649 9.45772" stroke="#525A70" stroke-width="1.5" stroke-linecap="round" stroke-linejoin="round"/>
</svg>
