<svg width="14" height="13" viewBox="0 0 14 13" fill="none" xmlns="http://www.w3.org/2000/svg">
<path d="M5.173 1.00056C5.94266 -0.333518 7.86819 -0.333519 8.63784 1.00056L13.5408 9.4986C14.3101 10.8319 13.3477 12.498 11.8084 12.498H2.00243C0.463277 12.4977 -0.498526 10.8319 0.270657 9.4986L5.173 1.00056ZM7.77196 1.4999C7.38713 0.833086 6.42444 0.833174 6.03954 1.4999L1.13654 9.9986C0.752036 10.6652 1.23296 11.4977 2.00243 11.498H11.8084C12.578 11.498 13.0594 10.6652 12.675 9.9986L7.77196 1.4999ZM6.91063 8.99795C7.18666 8.99797 7.41048 9.22195 7.41063 9.49795V9.50316C7.41063 9.77929 7.18676 10.0031 6.91063 10.0032H6.90542C6.62936 10.0031 6.40542 9.77924 6.40542 9.50316V9.49795C6.40558 9.222 6.62946 8.99804 6.90542 8.99795H6.91063ZM6.40542 7.49795V4.99795C6.40558 4.722 6.62946 4.49804 6.90542 4.49795C7.18147 4.49795 7.40527 4.72194 7.40542 4.99795V7.49795C7.40542 7.77409 7.18157 7.99795 6.90542 7.99795C6.62936 7.99786 6.40542 7.77404 6.40542 7.49795Z" fill="#C22626"/>
</svg>
