<svg width="76" height="79" viewBox="0 0 76 79" fill="none" xmlns="http://www.w3.org/2000/svg">
<path d="M38 27.143V42.143M38 2C29.398 10.1465 17.7825 15.143 5 15.143C4.7969 15.143 4.59409 15.1417 4.39158 15.1392C2.83959 19.8597 2 24.9034 2 30.1432C2 52.5093 17.2973 71.3025 38 76.631C58.7027 71.3025 74 52.5093 74 30.1432C74 24.9034 73.1604 19.8597 71.6084 15.1392C71.4059 15.1417 71.2031 15.143 71 15.143C58.2175 15.143 46.602 10.1465 38 2ZM38 54.143H38.03V54.173H38V54.143Z" stroke="#525A70" stroke-width="4" stroke-linecap="round" stroke-linejoin="round"/>
</svg>
