<svg width="20" height="20" viewBox="0 0 20 20" fill="none" xmlns="http://www.w3.org/2000/svg">
<path d="M17.7417 1.61088C17.817 1.61816 17.8817 1.53652 17.9301 1.48868C17.945 1.47382 17.9568 1.45619 17.9648 1.43677C17.9729 1.41736 17.977 1.39655 17.977 1.37554C17.977 1.35453 17.9729 1.33372 17.9648 1.31431C17.9568 1.2949 17.945 1.27726 17.9301 1.2624C17.8109 1.1576 17.7136 1.2426 17.6285 1.33772C17.6067 1.36029 17.5919 1.38877 17.586 1.41964C17.5801 1.45051 17.5834 1.48243 17.5954 1.51147C17.6074 1.54051 17.6277 1.56539 17.6537 1.58305C17.6797 1.60072 17.7103 1.61039 17.7417 1.61088Z" fill="white"/>
<path d="M17.1956 1.99696C17.1655 1.96696 17.1249 1.95011 17.0824 1.95011C17.04 1.95011 16.9993 1.96696 16.9693 1.99696C16.9633 2.00452 15.515 3.21488 15.515 3.21488C10.3091 7.74592 11.7637 7.7816 5.84399 3.2332C5.70051 3.11792 5.50243 3.31208 5.61927 3.45784L6.58327 4.68716L6.94551 5.14908L8.61091 7.27308C8.85665 7.58456 8.99102 7.96937 8.99257 8.36611C8.99413 8.76286 8.8628 9.14871 8.61951 9.46212L7.92915 10.3535L7.70455 10.6435L3.96943 14.9964C3.82595 15.1442 4.04255 15.3714 4.19571 15.2227L5.91523 13.6599C11.3862 8.94788 9.78231 9.02056 15.7768 13.6123C15.9168 13.7283 16.1208 13.533 16.0013 13.3875L14.179 11.0745L13.9737 10.8139L12.966 9.53484C12.7203 9.22335 12.5859 8.83855 12.5843 8.4418C12.5828 8.04505 12.7141 7.65921 12.9574 7.3458C12.9574 7.3458 17.1887 2.2286 17.1956 2.2232C17.2255 2.19319 17.2424 2.1525 17.2424 2.11008C17.2424 2.06765 17.2255 2.02696 17.1956 1.99696Z" fill="#FDC04E"/>
<path d="M10.4309 18.5646C10.3133 18.7061 10.5029 18.9073 10.6509 18.7936L12.3883 17.4874C12.5168 17.3918 12.674 17.3426 12.8341 17.3478C12.9942 17.3529 13.1478 17.4122 13.2699 17.5159L14.7014 18.7439C14.8385 18.8639 15.0422 18.6847 14.9384 18.5332L13.842 16.901C13.7601 16.7791 13.7183 16.6346 13.7226 16.4878C13.7269 16.3409 13.7771 16.1991 13.866 16.0822L15.3698 14.1054C15.4827 13.9596 15.2847 13.764 15.1405 13.8852L13.3176 15.3913C13.1965 15.4916 13.0452 15.5485 12.888 15.5527C12.7308 15.5569 12.5768 15.5083 12.4505 15.4146L11.3634 14.6106C11.2234 14.5045 11.034 14.6836 11.136 14.8294L11.9064 15.9594C11.9913 16.0851 12.0336 16.2348 12.0271 16.3863C12.0205 16.5379 11.9655 16.6833 11.8701 16.8012L10.4309 18.5646Z" fill="#FEDFA7"/>
<path d="M7.84702 3.7784C7.87012 3.77842 7.89295 3.77342 7.91393 3.76375C7.93491 3.75408 7.95354 3.73997 7.96854 3.7224L9.7865 1.6024C9.92026 1.44136 9.68378 1.23624 9.54358 1.39408L7.72562 3.51408C7.70611 3.53745 7.69361 3.56586 7.68959 3.59603C7.68556 3.62621 7.69017 3.6569 7.70287 3.68457C7.71558 3.71223 7.73586 3.73573 7.76137 3.75233C7.78689 3.76894 7.81658 3.77798 7.84702 3.7784Z" fill="#FEDFA7"/>
<path d="M2.74174 16.224L2.34974 16.6162C2.20362 16.7674 2.4247 16.9888 2.57602 16.8425L2.96802 16.4503C3.1141 16.2992 2.8931 16.0778 2.74174 16.224Z" fill="#FEDFA7"/>
<path d="M19.1731 11.9058C19.0825 11.8068 18.9822 11.6643 18.8395 11.7823C18.7115 11.9174 18.8464 12.0255 18.9388 12.1238C19.0847 12.2754 19.3137 12.0621 19.1731 11.9058Z" fill="#FEDFA7"/>
<path d="M6.14799 8.09808C5.98993 7.8996 5.89586 7.65782 5.87823 7.40471C5.86061 7.1516 5.92025 6.8991 6.04927 6.68064L6.94527 5.14908L6.58303 4.68716L5.51647 5.6994C5.29244 5.91206 4.9981 6.03502 4.68937 6.04492C4.38063 6.05481 4.07902 5.95096 3.84183 5.75308L1.88667 4.12224C1.74491 4.00292 1.54267 4.1918 1.65635 4.34128L3.29719 6.52332C3.45906 6.73726 3.54812 6.99744 3.55131 7.2657C3.55449 7.53396 3.47165 7.79618 3.31491 8.01392L0.812872 11.5113C0.789972 11.5433 0.779683 11.5827 0.783973 11.6218C0.788263 11.661 0.806831 11.6971 0.836124 11.7234C0.865417 11.7497 0.90338 11.7643 0.942749 11.7644C0.982118 11.7645 1.02013 11.75 1.04951 11.7238L3.97999 9.10972C4.19767 8.91644 4.47539 8.80423 4.76624 8.79206C5.05708 8.77989 5.34321 8.8685 5.57627 9.04292L7.70471 10.6434L7.92931 10.3533L6.14799 8.09808Z" fill="#FEDFA7"/>
<path d="M18.1533 11.0475C18.1819 11.0215 18.2002 10.986 18.2047 10.9476C18.2092 10.9092 18.1996 10.8704 18.1777 10.8385L17.148 9.3372C17.0729 9.22821 17.0346 9.09809 17.0386 8.96579C17.0426 8.83349 17.0887 8.70592 17.1702 8.60164L18.5827 6.78368C18.6974 6.63856 18.5008 6.44168 18.3557 6.56112L16.6434 7.94624C16.5301 8.03755 16.3899 8.08907 16.2444 8.09288C16.099 8.09669 15.9563 8.05257 15.8383 7.96732L14.817 7.228C14.6761 7.12312 14.4884 7.30444 14.5919 7.449L15.3155 8.48832C15.3945 8.60023 15.4342 8.73525 15.4281 8.87215C15.4221 9.00904 15.3707 9.14003 15.282 9.24452L13.9737 10.8139L14.1791 11.0746L15.78 9.89624C15.9 9.80922 16.0455 9.76452 16.1936 9.76918C16.3418 9.77383 16.4842 9.82758 16.5985 9.92196L17.9431 11.0515C17.9727 11.0764 18.0103 11.0896 18.0489 11.0889C18.0876 11.0882 18.1246 11.0735 18.1533 11.0475Z" fill="#FEDFA7"/>
</svg>
