<svg width="24" height="24" viewBox="0 0 24 24" fill="none" xmlns="http://www.w3.org/2000/svg">
<path d="M13.375 22.6723V22.2794C13.3708 22.0271 12.9953 22.0269 12.991 22.2794V22.6723C12.9953 22.9246 13.3708 22.9249 13.375 22.6723Z" fill="#FDC04E"/>
<path d="M21.0585 11.5575C20.4669 11.5623 19.883 11.5569 18.7943 11.47L18.3881 11.4333C16.1263 11.4028 14.1476 9.88842 13.8129 7.54208C13.5665 5.85386 13.4203 4.15253 13.375 2.44703C13.3652 2.20511 13.0021 2.19743 12.991 2.44703C12.9457 4.15254 12.7995 5.85389 12.5532 7.54213C12.2683 9.50101 10.7069 11.0656 8.75638 11.3468C7.57429 11.5428 6.07529 11.5574 5.29928 11.558C5.06379 11.5696 5.05645 11.9291 5.30053 11.9415C6.09589 11.9367 7.56214 11.9463 8.75653 12.1426C10.7072 12.4238 12.2686 13.9883 12.5533 15.9472C12.7995 17.6342 12.9456 19.3343 12.9911 21.0385C12.9906 21.0895 13.0103 21.1385 13.046 21.1749C13.0816 21.2112 13.1303 21.2319 13.1812 21.2324C13.2321 21.2329 13.2811 21.2132 13.3175 21.1775C13.3539 21.1419 13.3746 21.0932 13.3751 21.0423C13.6224 14.3929 13.897 11.7311 21.0632 11.9418C21.3057 11.9332 21.31 11.5623 21.0585 11.5575Z" fill="#FDC04E"/>
<path d="M11.1552 16.362C10.5456 16.3471 9.9955 16.3439 9.85563 15.4589C9.80432 15.0269 9.77403 14.5914 9.76486 14.1652C9.7566 13.9196 9.38979 13.9168 9.38086 14.1652C9.37193 14.5914 9.34145 15.0266 9.29014 15.4589C9.17552 16.1995 8.73761 16.3538 8.14395 16.3604C7.88758 16.3604 7.76955 16.3297 7.73297 16.5541C7.77075 16.7783 7.89008 16.7461 8.14486 16.7449C8.30378 16.7505 8.46212 16.767 8.61876 16.7944C8.96177 16.855 9.23796 17.2048 9.29014 17.6451C9.33017 17.9826 9.37001 18.6531 9.38086 19.1715C9.38086 19.2225 9.40109 19.2713 9.4371 19.3073C9.4731 19.3433 9.52194 19.3635 9.57286 19.3635C9.62378 19.3635 9.67262 19.3433 9.70862 19.3073C9.74463 19.2713 9.76486 19.2225 9.76486 19.1715C9.77571 18.6531 9.8156 17.9825 9.85563 17.6451C9.90905 17.1947 10.1875 16.8374 10.5176 16.7958C10.7532 16.7648 10.9904 16.7478 11.228 16.7452C11.5141 16.712 11.4488 16.3137 11.1552 16.362Z" fill="#FEDFA7"/>
<path d="M7.56959 7.24684C7.24083 7.24363 7.24583 7.81771 7.56959 7.81377C7.89848 7.81699 7.89349 7.24315 7.56959 7.24684Z" fill="#FEDFA7"/>
<path d="M5.91148 3.95303C6.14724 3.94762 6.38299 3.96416 6.61569 4.00242C6.9587 4.063 7.23489 4.41282 7.28706 4.85317C7.32705 5.19037 7.36694 5.86084 7.37778 6.37957C7.37778 6.43049 7.39801 6.47933 7.43402 6.51534C7.47003 6.55134 7.51886 6.57157 7.56978 6.57157C7.62071 6.57157 7.66954 6.55134 7.70555 6.51534C7.74156 6.47933 7.76178 6.43049 7.76178 6.37957C7.77263 5.86117 7.81252 5.19056 7.85255 4.85317C7.90598 4.40264 8.18442 4.04548 8.51452 4.00381C8.72707 3.97651 8.94086 3.95989 9.15508 3.95404C9.49382 3.99412 9.49108 3.52424 9.15215 3.57004C8.94034 3.5676 8.72898 3.54995 8.5197 3.51724C8.18006 3.46501 7.90574 3.11548 7.8525 2.6672C7.80119 2.23492 7.7709 1.7997 7.76174 1.37351C7.75358 1.12789 7.38662 1.12506 7.37774 1.37351C7.29244 2.62765 7.49774 3.66311 5.90994 3.56989C5.67316 3.5866 5.67282 3.93762 5.91148 3.95303Z" fill="#FEDFA7"/>
<path d="M18.592 13.6401C18.6429 13.6401 18.6917 13.6199 18.7277 13.5839C18.7637 13.5478 18.784 13.499 18.784 13.4481V12.8784C18.7776 12.6253 18.4064 12.625 18.4 12.8784V13.4483C18.4 13.4992 18.4203 13.548 18.4563 13.5839C18.4923 13.6199 18.5411 13.6401 18.592 13.6401Z" fill="#FEDFA7"/>
<path d="M18.8319 14.5019C18.8355 14.2449 18.4654 14.171 18.3706 14.4103C18.2436 14.7695 18.8112 14.8826 18.8319 14.5019Z" fill="#FEDFA7"/>
<path d="M20.7954 8.60549C20.4793 8.60877 20.1635 8.58514 19.8514 8.53483C19.3691 8.46062 18.9802 7.97049 18.9058 7.34275C18.8371 6.76478 18.7962 6.18245 18.7841 5.61187C18.7761 5.35747 18.4097 5.36093 18.4001 5.60794C18.3882 6.17971 18.3473 6.76339 18.2785 7.34275C18.0843 8.55586 17.2984 8.61187 16.3784 8.60582C16.1419 8.62257 16.1409 8.97384 16.3799 8.9892C18.2082 8.89267 18.2968 9.78926 18.3882 11.4332L18.7944 11.4698C18.8553 10.5622 18.8445 9.23443 19.8463 9.0575C20.1629 9.01576 20.4817 8.993 20.8011 8.98934C21.0461 8.97706 21.0432 8.6111 20.7954 8.60549Z" fill="#FEDFA7"/>
</svg>
