<svg width="18" height="17" viewBox="0 0 18 17" fill="none" xmlns="http://www.w3.org/2000/svg">
<path d="M8.31135 0.308206C8.48215 -0.10244 9.06387 -0.10244 9.23467 0.308206L11.3008 5.27569C11.3728 5.4488 11.5356 5.56709 11.7225 5.58207L17.0853 6.01201C17.5286 6.04755 17.7084 6.6008 17.3706 6.89013L13.2847 10.3901C13.1423 10.5121 13.0801 10.7035 13.1236 10.8859L14.3719 16.1191C14.4751 16.5517 14.0045 16.8936 13.625 16.6618L9.03364 13.8574C8.87363 13.7597 8.67239 13.7597 8.51238 13.8574L3.92107 16.6618C3.54152 16.8936 3.07089 16.5517 3.17409 16.1191L4.4224 10.8859C4.4659 10.7035 4.40371 10.5121 4.26132 10.3901L0.175423 6.89013C-0.162345 6.6008 0.0174178 6.04755 0.460745 6.01201L5.82355 5.58207C6.01045 5.56709 6.17325 5.4488 6.24526 5.27569L8.31135 0.308206Z" fill="#F4B63C"/>
</svg>
