<svg width="200" height="24" viewBox="0 0 200 24" fill="none" xmlns="http://www.w3.org/2000/svg">
<path d="M24.7965 23.1166C24.9116 23.1166 24.9691 23.1884 24.9691 23.332C24.9691 23.4756 24.9116 23.5474 24.7965 23.5474C24.359 23.5474 23.6568 23.5234 22.6898 23.4756C21.7228 23.4277 21.0206 23.4038 20.5831 23.4038C20.0075 23.4038 19.3283 23.4277 18.5455 23.4756C17.7627 23.5234 17.1526 23.5474 16.7152 23.5474C16.6231 23.5474 16.577 23.4756 16.577 23.332C16.577 23.1884 16.6231 23.1166 16.7152 23.1166C17.3828 23.1166 17.8663 23.0448 18.1656 22.9012C18.488 22.7337 18.6491 22.4705 18.6491 22.1115C18.6491 21.7526 18.4534 21.1424 18.062 20.2809L15.4373 14.753H7.07977L5.42206 18.6297C5.12276 19.3476 4.9731 19.9937 4.9731 20.568C4.9731 21.4056 5.2609 22.0398 5.83649 22.4705C6.41208 22.9012 7.21791 23.1166 8.25397 23.1166C8.36909 23.1166 8.42665 23.1884 8.42665 23.332C8.42665 23.4756 8.36909 23.5474 8.25397 23.5474C7.83955 23.5474 7.24093 23.5234 6.45813 23.4756C5.58323 23.4277 4.82345 23.4038 4.17879 23.4038C3.55715 23.4038 2.83191 23.4277 2.00306 23.4756C1.2663 23.5234 0.656174 23.5474 0.172677 23.5474C0.0575591 23.5474 0 23.4756 0 23.332C0 23.1884 0.0575591 23.1166 0.172677 23.1166C0.817339 23.1166 1.35839 22.985 1.79584 22.7218C2.23329 22.4585 2.65923 21.9919 3.07365 21.3218C3.48808 20.6279 3.98309 19.6108 4.55868 18.2707L11.9838 0.897383C12.0298 0.825593 12.1335 0.789698 12.2946 0.789698C12.4558 0.789698 12.5479 0.825593 12.5709 0.897383L21.0321 18.6297C21.8379 20.3527 22.5056 21.5372 23.0351 22.1833C23.5877 22.8055 24.1748 23.1166 24.7965 23.1166ZM7.45966 13.8556H15.0229L11.0513 5.49199L7.45966 13.8556Z" fill="#F4F7FE"/>
<path d="M31.8395 20.4963C31.8395 21.1424 31.8856 21.609 31.9777 21.8962C32.0928 22.1833 32.3 22.3748 32.5993 22.4705C32.8986 22.5662 33.3821 22.6141 34.0498 22.6141H36.1219C37.7566 22.6141 39.138 22.1474 40.2662 21.2142C41.3943 20.2569 42.1426 18.9767 42.511 17.3734C42.534 17.3016 42.6031 17.2776 42.7182 17.3016C42.8333 17.3016 42.8909 17.3375 42.8909 17.4093C42.6837 19.6587 42.58 21.5253 42.58 23.0089C42.58 23.2004 42.5455 23.344 42.4764 23.4397C42.4074 23.5115 42.2692 23.5474 42.062 23.5474H25.8994C25.8534 23.5474 25.8304 23.4756 25.8304 23.332C25.8304 23.1884 25.8534 23.1166 25.8994 23.1166C26.6822 23.1166 27.2463 23.0568 27.5917 22.9371C27.96 22.8175 28.2018 22.5901 28.3169 22.2551C28.455 21.8962 28.5241 21.3577 28.5241 20.6398V4.02028C28.5241 3.30237 28.455 2.77591 28.3169 2.44089C28.2018 2.10586 27.96 1.87852 27.5917 1.75887C27.2233 1.61529 26.6592 1.5435 25.8994 1.5435C25.8534 1.5435 25.8304 1.47171 25.8304 1.32813C25.8304 1.18455 25.8534 1.11276 25.8994 1.11276L27.6607 1.14865C28.6738 1.19651 29.5026 1.22044 30.1473 1.22044C30.838 1.22044 31.6899 1.19651 32.7029 1.14865L34.4297 1.11276C34.4988 1.11276 34.5333 1.18455 34.5333 1.32813C34.5333 1.47171 34.4988 1.5435 34.4297 1.5435C33.6699 1.5435 33.1058 1.61529 32.7374 1.75887C32.3921 1.87852 32.1503 2.11783 32.0122 2.47678C31.8971 2.8118 31.8395 3.33827 31.8395 4.05617V20.4963Z" fill="#F4F7FE"/>
<path d="M51.0072 20.6398C51.0072 21.3817 51.0648 21.9201 51.1799 22.2551C51.295 22.5901 51.5253 22.8175 51.8706 22.9371C52.239 23.0568 52.8146 23.1166 53.5974 23.1166C53.6665 23.1166 53.701 23.1884 53.701 23.332C53.701 23.4756 53.6665 23.5474 53.5974 23.5474C52.8606 23.5474 52.2735 23.5354 51.8361 23.5115L49.2805 23.4756L46.7939 23.5115C46.3565 23.5354 45.7578 23.5474 44.9981 23.5474C44.929 23.5474 44.8945 23.4756 44.8945 23.332C44.8945 23.1884 44.929 23.1166 44.9981 23.1166C45.7809 23.1166 46.3449 23.0568 46.6903 22.9371C47.0587 22.8175 47.3119 22.5901 47.4501 22.2551C47.5882 21.8962 47.6573 21.3577 47.6573 20.6398V4.02028C47.6573 3.30237 47.5882 2.77591 47.4501 2.44089C47.3119 2.10586 47.0587 1.87852 46.6903 1.75887C46.3449 1.61529 45.7809 1.5435 44.9981 1.5435C44.929 1.5435 44.8945 1.47171 44.8945 1.32813C44.8945 1.18455 44.929 1.11276 44.9981 1.11276L46.7939 1.14865C47.8069 1.19651 48.6358 1.22044 49.2805 1.22044C49.9942 1.22044 50.8576 1.19651 51.8706 1.14865L53.5974 1.11276C53.6665 1.11276 53.701 1.18455 53.701 1.32813C53.701 1.47171 53.6665 1.5435 53.5974 1.5435C52.8376 1.5435 52.2735 1.61529 51.9052 1.75887C51.5598 1.90245 51.3181 2.15372 51.1799 2.51268C51.0648 2.8477 51.0072 3.37416 51.0072 4.09207V20.6398Z" fill="#F4F7FE"/>
<path d="M60.8452 4.91766C60.8452 5.80308 61.0525 6.59278 61.4669 7.28676C61.9043 7.95681 62.4339 8.5431 63.0555 9.04563C63.7002 9.54817 64.5636 10.1464 65.6457 10.8404C66.8199 11.6062 67.7408 12.2642 68.4085 12.8146C69.0992 13.365 69.6748 14.0471 70.1353 14.8607C70.6188 15.6504 70.8605 16.5837 70.8605 17.6605C70.8605 18.881 70.5497 19.9698 69.9281 20.927C69.3295 21.8842 68.4661 22.638 67.3379 23.1884C66.2328 23.7149 64.9665 23.9781 63.539 23.9781C62.572 23.9781 61.5705 23.8465 60.5344 23.5833C59.5214 23.32 58.7501 22.997 58.2206 22.6141C58.0133 22.4705 57.8982 22.2432 57.8752 21.9321L57.668 16.476V16.4401C57.668 16.3444 57.7255 16.2965 57.8407 16.2965C57.9558 16.2726 58.0249 16.3085 58.0479 16.4042C58.8077 18.3904 59.671 20.0176 60.638 21.2859C61.6281 22.5543 62.8828 23.1884 64.4024 23.1884C65.3924 23.1884 66.2213 22.9132 66.889 22.3628C67.5566 21.7885 67.8905 20.8432 67.8905 19.5271C67.8905 18.4741 67.6602 17.5528 67.1998 16.7631C66.7623 15.9734 66.2098 15.3154 65.5421 14.7889C64.8974 14.2624 64.011 13.6163 62.8828 12.8505C61.7777 12.1087 60.9143 11.4865 60.2927 10.984C59.671 10.4575 59.1415 9.82336 58.7041 9.08153C58.2666 8.31576 58.0479 7.43034 58.0479 6.42527C58.0479 5.1809 58.3817 4.12797 59.0494 3.26648C59.7171 2.40499 60.5805 1.77084 61.6396 1.36402C62.7217 0.933279 63.8498 0.717907 65.024 0.717907C65.8068 0.717907 66.5896 0.801663 67.3725 0.969175C68.1553 1.11276 68.8114 1.3042 69.341 1.5435C69.6863 1.68708 69.859 1.91442 69.859 2.22551L69.9626 7.10728C69.9626 7.17907 69.8935 7.22693 69.7554 7.25086C69.6403 7.27479 69.5712 7.25086 69.5482 7.17907C69.0877 5.71933 68.4661 4.40316 67.6833 3.23058C66.9235 2.03407 65.7723 1.43581 64.2297 1.43581C63.1937 1.43581 62.3648 1.74691 61.7432 2.36909C61.1446 2.99128 60.8452 3.8408 60.8452 4.91766Z" fill="#F4F7FE"/>
<path d="M97.8616 23.1166C97.9307 23.1166 97.9652 23.1884 97.9652 23.332C97.9652 23.4756 97.9307 23.5474 97.8616 23.5474C97.0788 23.5474 96.4456 23.5354 95.9621 23.5115L93.441 23.4756L90.5055 23.5115C90.0911 23.5354 89.5385 23.5474 88.8478 23.5474C88.7788 23.5474 88.7442 23.4756 88.7442 23.332C88.7442 23.1884 88.7788 23.1166 88.8478 23.1166C89.7227 23.1166 90.3559 23.0568 90.7473 22.9371C91.1387 22.8175 91.4035 22.5901 91.5416 22.2551C91.6797 21.9201 91.7488 21.3817 91.7488 20.6398V12.348H79.9031V20.6398C79.9031 21.3577 79.9722 21.8962 80.1104 22.2551C80.2485 22.5901 80.5133 22.8175 80.9047 22.9371C81.3191 23.0568 81.9638 23.1166 82.8387 23.1166C82.8847 23.1166 82.9077 23.1884 82.9077 23.332C82.9077 23.4756 82.8847 23.5474 82.8387 23.5474C82.0559 23.5474 81.4457 23.5354 81.0083 23.5115L78.1418 23.4756L75.6208 23.5115C75.1833 23.5354 74.5732 23.5474 73.7904 23.5474C73.7443 23.5474 73.7213 23.4756 73.7213 23.332C73.7213 23.1884 73.7443 23.1166 73.7904 23.1166C74.6192 23.1166 75.2294 23.0568 75.6208 22.9371C76.0122 22.8175 76.2769 22.5901 76.4151 22.2551C76.5532 21.8962 76.6223 21.3577 76.6223 20.6398V4.02028C76.6223 3.30237 76.5532 2.77591 76.4151 2.44089C76.2769 2.10586 76.0122 1.87852 75.6208 1.75887C75.2294 1.61529 74.6307 1.5435 73.8249 1.5435C73.7789 1.5435 73.7558 1.47171 73.7558 1.32813C73.7558 1.18455 73.7789 1.11276 73.8249 1.11276L75.6553 1.14865C76.7144 1.19651 77.5432 1.22044 78.1418 1.22044C78.9477 1.22044 79.9031 1.19651 81.0083 1.14865L82.8387 1.11276C82.8847 1.11276 82.9077 1.18455 82.9077 1.32813C82.9077 1.47171 82.8847 1.5435 82.8387 1.5435C81.9868 1.5435 81.3536 1.61529 80.9392 1.75887C80.5478 1.90245 80.2715 2.15372 80.1104 2.51268C79.9722 2.8477 79.9031 3.37416 79.9031 4.09207V11.4147H91.7488V4.09207C91.7488 3.37416 91.6797 2.8477 91.5416 2.51268C91.4035 2.15372 91.1272 1.90245 90.7127 1.75887C90.3213 1.61529 89.6997 1.5435 88.8478 1.5435C88.7788 1.5435 88.7442 1.47171 88.7442 1.32813C88.7442 1.18455 88.7788 1.11276 88.8478 1.11276L90.5055 1.14865C91.6107 1.19651 92.5892 1.22044 93.441 1.22044C94.0627 1.22044 94.903 1.19651 95.9621 1.14865L97.8616 1.11276C97.9307 1.11276 97.9652 1.18455 97.9652 1.32813C97.9652 1.47171 97.9307 1.5435 97.8616 1.5435C97.0327 1.5435 96.4226 1.61529 96.0312 1.75887C95.6628 1.87852 95.4096 2.10586 95.2714 2.44089C95.1333 2.77591 95.0642 3.30237 95.0642 4.02028V20.6398C95.0642 21.3577 95.1333 21.8962 95.2714 22.2551C95.4096 22.5901 95.6628 22.8175 96.0312 22.9371C96.4226 23.0568 97.0327 23.1166 97.8616 23.1166Z" fill="#F4F7FE"/>
<path d="M123.546 23.1166C123.661 23.1166 123.719 23.1884 123.719 23.332C123.719 23.4756 123.661 23.5474 123.546 23.5474C123.109 23.5474 122.407 23.5234 121.44 23.4756C120.473 23.4277 119.77 23.4038 119.333 23.4038C118.757 23.4038 118.078 23.4277 117.295 23.4756C116.513 23.5234 115.902 23.5474 115.465 23.5474C115.373 23.5474 115.327 23.4756 115.327 23.332C115.327 23.1884 115.373 23.1166 115.465 23.1166C116.133 23.1166 116.616 23.0448 116.915 22.9012C117.238 22.7337 117.399 22.4705 117.399 22.1115C117.399 21.7526 117.203 21.1424 116.812 20.2809L114.187 14.753H105.83L104.172 18.6297C103.873 19.3476 103.723 19.9937 103.723 20.568C103.723 21.4056 104.011 22.0398 104.586 22.4705C105.162 22.9012 105.968 23.1166 107.004 23.1166C107.119 23.1166 107.176 23.1884 107.176 23.332C107.176 23.4756 107.119 23.5474 107.004 23.5474C106.589 23.5474 105.991 23.5234 105.208 23.4756C104.333 23.4277 103.573 23.4038 102.929 23.4038C102.307 23.4038 101.582 23.4277 100.753 23.4756C100.016 23.5234 99.406 23.5474 98.9225 23.5474C98.8074 23.5474 98.7498 23.4756 98.7498 23.332C98.7498 23.1884 98.8074 23.1166 98.9225 23.1166C99.5671 23.1166 100.108 22.985 100.546 22.7218C100.983 22.4585 101.409 21.9919 101.823 21.3218C102.238 20.6279 102.733 19.6108 103.308 18.2707L110.734 0.897383C110.78 0.825593 110.883 0.789698 111.044 0.789698C111.206 0.789698 111.298 0.825593 111.321 0.897383L119.782 18.6297C120.588 20.3527 121.255 21.5372 121.785 22.1833C122.338 22.8055 122.925 23.1166 123.546 23.1166ZM106.209 13.8556H113.773L109.801 5.49199L106.209 13.8556Z" fill="#F4F7FE"/>
<path d="M155.779 23.1166C155.848 23.1166 155.882 23.1884 155.882 23.332C155.882 23.4756 155.848 23.5474 155.779 23.5474H150.218C149.689 23.5474 148.699 22.5901 147.248 20.6757C145.821 18.7613 144.083 16.0811 142.034 12.6352C141.527 12.683 141.136 12.707 140.859 12.707C140.353 12.707 139.754 12.683 139.063 12.6352V20.6398C139.063 21.3817 139.121 21.9201 139.236 22.2551C139.374 22.5901 139.616 22.8175 139.961 22.9371C140.33 23.0568 140.905 23.1166 141.688 23.1166C141.734 23.1166 141.757 23.1884 141.757 23.332C141.757 23.4756 141.734 23.5474 141.688 23.5474C140.928 23.5474 140.341 23.5354 139.927 23.5115L137.371 23.4756L134.885 23.5115C134.447 23.5354 133.849 23.5474 133.089 23.5474C133.02 23.5474 132.985 23.4756 132.985 23.332C132.985 23.1884 133.02 23.1166 133.089 23.1166C133.872 23.1166 134.436 23.0568 134.781 22.9371C135.149 22.8175 135.403 22.5901 135.541 22.2551C135.679 21.8962 135.748 21.3577 135.748 20.6398V4.02028C135.748 3.30237 135.679 2.77591 135.541 2.44089C135.426 2.10586 135.184 1.87852 134.816 1.75887C134.447 1.61529 133.883 1.5435 133.123 1.5435C133.077 1.5435 133.054 1.47171 133.054 1.32813C133.054 1.18455 133.077 1.11276 133.123 1.11276L134.919 1.14865C135.932 1.19651 136.75 1.22044 137.371 1.22044C138.131 1.22044 138.96 1.18455 139.858 1.11276C140.157 1.08883 140.514 1.06489 140.928 1.04096C141.366 1.01704 141.849 1.00507 142.379 1.00507C144.382 1.00507 145.924 1.41188 147.007 2.22551C148.112 3.03914 148.664 4.17583 148.664 5.63557C148.664 6.95173 148.307 8.13628 147.594 9.18921C146.903 10.2421 145.971 11.0797 144.796 11.7019C146.684 14.5974 148.261 16.8589 149.528 18.4861C150.794 20.1134 151.911 21.2979 152.878 22.0398C153.868 22.7577 154.835 23.1166 155.779 23.1166ZM139.063 11.666C139.616 11.7617 140.284 11.8096 141.066 11.8096C142.563 11.8096 143.634 11.4267 144.278 10.6609C144.923 9.87122 145.245 8.61489 145.245 6.89191C145.245 4.95356 144.923 3.6015 144.278 2.83573C143.657 2.06997 142.747 1.68708 141.55 1.68708C140.652 1.68708 140.007 1.86656 139.616 2.22551C139.248 2.56053 139.063 3.18272 139.063 4.09207V11.666Z" fill="#F4F7FE"/>
<path d="M166.504 23.9781C164.363 23.9781 162.452 23.4636 160.771 22.4346C159.113 21.3817 157.824 19.9698 156.903 18.1989C156.005 16.4042 155.556 14.4539 155.556 12.348C155.556 9.88319 156.155 7.77733 157.352 6.03042C158.549 4.25958 160.08 2.93145 161.945 2.04603C163.833 1.16062 165.755 0.717907 167.712 0.717907C169.9 0.717907 171.822 1.25634 173.48 2.3332C175.138 3.38613 176.404 4.78605 177.279 6.53296C178.177 8.27986 178.626 10.1345 178.626 12.0967C178.626 14.2744 178.073 16.2726 176.968 18.0913C175.863 19.91 174.378 21.3458 172.513 22.3987C170.671 23.4516 168.668 23.9781 166.504 23.9781ZM167.678 23.1166C169.059 23.1166 170.291 22.7337 171.373 21.968C172.478 21.1783 173.342 20.0296 173.963 18.522C174.608 17.0144 174.93 15.2196 174.93 13.1377C174.93 10.9361 174.574 8.96187 173.86 7.21497C173.169 5.46806 172.168 4.10404 170.855 3.1229C169.566 2.14176 168.046 1.65119 166.297 1.65119C164.063 1.65119 162.325 2.48874 161.082 4.16386C159.861 5.81505 159.251 8.11235 159.251 11.0558C159.251 13.3291 159.608 15.3871 160.322 17.2298C161.059 19.0724 162.06 20.5202 163.326 21.5731C164.616 22.6021 166.066 23.1166 167.678 23.1166Z" fill="#F4F7FE"/>
<path d="M194.948 2.01014C195.017 1.89049 195.04 1.8187 195.017 1.79477C195.017 1.74691 194.937 1.72298 194.775 1.72298C191.69 1.72298 189.434 1.8187 188.006 2.01014C186.579 2.17765 185.474 2.5725 184.691 3.19469C183.908 3.79294 183.217 4.78605 182.619 6.174C182.619 6.19793 182.573 6.2099 182.481 6.2099C182.274 6.2099 182.181 6.16204 182.204 6.06632L183.586 0.0358949C183.586 0.011965 183.632 0 183.724 0C183.954 0 184.046 0.0358949 184 0.107685C183.977 0.179476 183.966 0.275197 183.966 0.394848C183.966 0.682012 184.092 0.873454 184.346 0.969175C184.622 1.0649 185.163 1.11276 185.969 1.11276H198.574C198.689 1.11276 198.77 1.17258 198.816 1.29223C198.885 1.41188 198.885 1.50761 198.816 1.57939L186.383 22.5782C186.291 22.6978 186.257 22.7816 186.28 22.8294C186.303 22.8534 186.383 22.8653 186.521 22.8653H194.119C195.455 22.8653 196.617 22.4346 197.607 21.5731C198.597 20.7116 199.207 19.6108 199.438 18.2707C199.461 18.1989 199.53 18.1631 199.645 18.1631C199.76 18.1631 199.818 18.1989 199.818 18.2707L199.334 23.2602C199.334 23.332 199.299 23.4157 199.23 23.5115C199.184 23.5833 199.115 23.6191 199.023 23.6191C195.593 23.5713 190.09 23.5474 182.515 23.5474C182.4 23.5474 182.32 23.4995 182.273 23.4038C182.227 23.2841 182.239 23.1764 182.308 23.0807L194.948 2.01014Z" fill="#F4F7FE"/>
</svg>
